<svg width="222" height="222" viewBox="0 0 222 222" fill="none" xmlns="http://www.w3.org/2000/svg">
<circle cx="111" cy="111" r="103.5" stroke="white" stroke-width="15"/>
<path d="M8.18947 109L15.993 74.5H205.922L213.33 109.481L205.952 143.5H15.993L8.18947 109Z" stroke="white" stroke-width="15"/>
<path d="M151.5 111C151.5 140.905 146.408 167.626 138.463 186.591C134.484 196.089 129.937 203.288 125.271 207.999C120.633 212.683 116.322 214.5 112.5 214.5C108.678 214.5 104.367 212.683 99.7288 207.999C95.063 203.288 90.5162 196.089 86.5371 186.591C78.5921 167.626 73.5 140.905 73.5 111C73.5 81.0954 78.5921 54.3745 86.5371 35.409C90.5162 25.9105 95.063 18.7115 99.7288 14.0007C104.367 9.31742 108.678 7.5 112.5 7.5C116.322 7.5 120.633 9.31742 125.271 14.0007C129.937 18.7115 134.484 25.9105 138.463 35.409C146.408 54.3745 151.5 81.0954 151.5 111Z" stroke="white" stroke-width="15"/>
</svg>
