<svg width="224" height="222" viewBox="0 0 224 222" fill="none" xmlns="http://www.w3.org/2000/svg">
<circle cx="111" cy="111" r="111" fill="#F5F5F5"/>
<mask id="mask0_3_24" style="mask-type:alpha" maskUnits="userSpaceOnUse" x="43" y="199" width="137" height="23">
<path d="M180 199H43L51.0804 222H172.287L180 199Z" fill="#CB001C"/>
</mask>
<g mask="url(#mask0_3_24)">
<circle cx="111" cy="111" r="111" fill="#CB001C"/>
</g>
<mask id="mask1_3_24" style="mask-type:alpha" maskUnits="userSpaceOnUse" x="5" y="152" width="211" height="24">
<path d="M216 152H5L17.445 176H204.121L216 152Z" fill="#CB001C"/>
</mask>
<g mask="url(#mask1_3_24)">
<circle cx="111" cy="111" r="111" fill="#CB001C"/>
</g>
<mask id="mask2_3_24" style="mask-type:alpha" maskUnits="userSpaceOnUse" x="0" y="105" width="224" height="24">
<path d="M224 105H0L13.5657 129H223L224 105Z" fill="#CB001C"/>
</mask>
<g mask="url(#mask2_3_24)">
<circle cx="111" cy="111" r="111" fill="#CB001C"/>
</g>
<mask id="mask3_3_24" style="mask-type:alpha" maskUnits="userSpaceOnUse" x="19" y="52" width="200" height="24">
<path d="M207 52H19L31.445 76H218.121L207 52Z" fill="#CB001C"/>
</mask>
<g mask="url(#mask3_3_24)">
<circle cx="111" cy="111" r="111" fill="#CB001C"/>
</g>
<mask id="mask4_3_24" style="mask-type:alpha" maskUnits="userSpaceOnUse" x="26" y="1" width="169" height="24">
<path d="M195 1H26L35.9678 25H185.485L195 1Z" fill="#CB001C"/>
</mask>
<g mask="url(#mask4_3_24)">
<circle cx="111" cy="111" r="111" fill="#CB001C"/>
</g>
<mask id="mask5_3_24" style="mask-type:alpha" maskUnits="userSpaceOnUse" x="0" y="1" width="114" height="128">
<rect y="1" width="114" height="128" fill="#D9D9D9"/>
</mask>
<g mask="url(#mask5_3_24)">
<circle cx="111" cy="111" r="111" fill="#2A3561"/>
</g>
<path d="M94.5 69L97.5 63L100.5 69L107 70L102.5 75L103 81L97.5 78.5L91.5 81L92.5 74.5L88 70L94.5 69Z" fill="white"/>
<path d="M94.5 69L97.5 63L100.5 69L107 70L102.5 75L103 81L97.5 78.5L91.5 81L92.5 74.5L88 70L94.5 69Z" fill="white"/>
<path d="M94.5 69L97.5 63L100.5 69L107 70L102.5 75L103 81L97.5 78.5L91.5 81L92.5 74.5L88 70L94.5 69Z" fill="white"/>
<path d="M94.5 69L97.5 63L100.5 69L107 70L102.5 75L103 81L97.5 78.5L91.5 81L92.5 74.5L88 70L94.5 69Z" fill="white"/>
<path d="M94.5 69L97.5 63L100.5 69L107 70L102.5 75L103 81L97.5 78.5L91.5 81L92.5 74.5L88 70L94.5 69Z" fill="white"/>
<path d="M94.5 69L97.5 63L100.5 69L107 70L102.5 75L103 81L97.5 78.5L91.5 81L92.5 74.5L88 70L94.5 69Z" fill="white"/>
<path d="M94.5 69L97.5 63L100.5 69L107 70L102.5 75L103 81L97.5 78.5L91.5 81L92.5 74.5L88 70L94.5 69Z" fill="white"/>
<path d="M94.5 69L97.5 63L100.5 69L107 70L102.5 75L103 81L97.5 78.5L91.5 81L92.5 74.5L88 70L94.5 69Z" fill="white"/>
<path d="M74.5 51L77.5 45L80.5 51L87 52L82.5 57L83 63L77.5 60.5L71.5 63L72.5 56.5L68 52L74.5 51Z" fill="white"/>
<path d="M74.5 51L77.5 45L80.5 51L87 52L82.5 57L83 63L77.5 60.5L71.5 63L72.5 56.5L68 52L74.5 51Z" fill="white"/>
<path d="M74.5 51L77.5 45L80.5 51L87 52L82.5 57L83 63L77.5 60.5L71.5 63L72.5 56.5L68 52L74.5 51Z" fill="white"/>
<path d="M74.5 51L77.5 45L80.5 51L87 52L82.5 57L83 63L77.5 60.5L71.5 63L72.5 56.5L68 52L74.5 51Z" fill="white"/>
<path d="M74.5 51L77.5 45L80.5 51L87 52L82.5 57L83 63L77.5 60.5L71.5 63L72.5 56.5L68 52L74.5 51Z" fill="white"/>
<path d="M74.5 51L77.5 45L80.5 51L87 52L82.5 57L83 63L77.5 60.5L71.5 63L72.5 56.5L68 52L74.5 51Z" fill="white"/>
<path d="M74.5 51L77.5 45L80.5 51L87 52L82.5 57L83 63L77.5 60.5L71.5 63L72.5 56.5L68 52L74.5 51Z" fill="white"/>
<path d="M74.5 51L77.5 45L80.5 51L87 52L82.5 57L83 63L77.5 60.5L71.5 63L72.5 56.5L68 52L74.5 51Z" fill="white"/>
<path d="M74.5 88L77.5 82L80.5 88L87 89L82.5 94L83 100L77.5 97.5L71.5 100L72.5 93.5L68 89L74.5 88Z" fill="white"/>
<path d="M74.5 88L77.5 82L80.5 88L87 89L82.5 94L83 100L77.5 97.5L71.5 100L72.5 93.5L68 89L74.5 88Z" fill="white"/>
<path d="M74.5 88L77.5 82L80.5 88L87 89L82.5 94L83 100L77.5 97.5L71.5 100L72.5 93.5L68 89L74.5 88Z" fill="white"/>
<path d="M74.5 88L77.5 82L80.5 88L87 89L82.5 94L83 100L77.5 97.5L71.5 100L72.5 93.5L68 89L74.5 88Z" fill="white"/>
<path d="M74.5 88L77.5 82L80.5 88L87 89L82.5 94L83 100L77.5 97.5L71.5 100L72.5 93.5L68 89L74.5 88Z" fill="white"/>
<path d="M74.5 88L77.5 82L80.5 88L87 89L82.5 94L83 100L77.5 97.5L71.5 100L72.5 93.5L68 89L74.5 88Z" fill="white"/>
<path d="M74.5 88L77.5 82L80.5 88L87 89L82.5 94L83 100L77.5 97.5L71.5 100L72.5 93.5L68 89L74.5 88Z" fill="white"/>
<path d="M74.5 88L77.5 82L80.5 88L87 89L82.5 94L83 100L77.5 97.5L71.5 100L72.5 93.5L68 89L74.5 88Z" fill="white"/>
<path d="M54.5 69L57.5 63L60.5 69L67 70L62.5 75L63 81L57.5 78.5L51.5 81L52.5 74.5L48 70L54.5 69Z" fill="white"/>
<path d="M54.5 69L57.5 63L60.5 69L67 70L62.5 75L63 81L57.5 78.5L51.5 81L52.5 74.5L48 70L54.5 69Z" fill="white"/>
<path d="M54.5 69L57.5 63L60.5 69L67 70L62.5 75L63 81L57.5 78.5L51.5 81L52.5 74.5L48 70L54.5 69Z" fill="white"/>
<path d="M54.5 69L57.5 63L60.5 69L67 70L62.5 75L63 81L57.5 78.5L51.5 81L52.5 74.5L48 70L54.5 69Z" fill="white"/>
<path d="M54.5 69L57.5 63L60.5 69L67 70L62.5 75L63 81L57.5 78.5L51.5 81L52.5 74.5L48 70L54.5 69Z" fill="white"/>
<path d="M54.5 69L57.5 63L60.5 69L67 70L62.5 75L63 81L57.5 78.5L51.5 81L52.5 74.5L48 70L54.5 69Z" fill="white"/>
<path d="M54.5 69L57.5 63L60.5 69L67 70L62.5 75L63 81L57.5 78.5L51.5 81L52.5 74.5L48 70L54.5 69Z" fill="white"/>
<path d="M54.5 69L57.5 63L60.5 69L67 70L62.5 75L63 81L57.5 78.5L51.5 81L52.5 74.5L48 70L54.5 69Z" fill="white"/>
<path d="M54.5 108L57.5 102L60.5 108L67 109L62.5 114L63 120L57.5 117.5L51.5 120L52.5 113.5L48 109L54.5 108Z" fill="white"/>
<path d="M54.5 108L57.5 102L60.5 108L67 109L62.5 114L63 120L57.5 117.5L51.5 120L52.5 113.5L48 109L54.5 108Z" fill="white"/>
<path d="M54.5 108L57.5 102L60.5 108L67 109L62.5 114L63 120L57.5 117.5L51.5 120L52.5 113.5L48 109L54.5 108Z" fill="white"/>
<path d="M54.5 108L57.5 102L60.5 108L67 109L62.5 114L63 120L57.5 117.5L51.5 120L52.5 113.5L48 109L54.5 108Z" fill="white"/>
<path d="M54.5 108L57.5 102L60.5 108L67 109L62.5 114L63 120L57.5 117.5L51.5 120L52.5 113.5L48 109L54.5 108Z" fill="white"/>
<path d="M54.5 108L57.5 102L60.5 108L67 109L62.5 114L63 120L57.5 117.5L51.5 120L52.5 113.5L48 109L54.5 108Z" fill="white"/>
<path d="M54.5 108L57.5 102L60.5 108L67 109L62.5 114L63 120L57.5 117.5L51.5 120L52.5 113.5L48 109L54.5 108Z" fill="white"/>
<path d="M54.5 108L57.5 102L60.5 108L67 109L62.5 114L63 120L57.5 117.5L51.5 120L52.5 113.5L48 109L54.5 108Z" fill="white"/>
<path d="M35.5 88L38.5 82L41.5 88L48 89L43.5 94L44 100L38.5 97.5L32.5 100L33.5 93.5L29 89L35.5 88Z" fill="white"/>
<path d="M35.5 88L38.5 82L41.5 88L48 89L43.5 94L44 100L38.5 97.5L32.5 100L33.5 93.5L29 89L35.5 88Z" fill="white"/>
<path d="M35.5 88L38.5 82L41.5 88L48 89L43.5 94L44 100L38.5 97.5L32.5 100L33.5 93.5L29 89L35.5 88Z" fill="white"/>
<path d="M35.5 88L38.5 82L41.5 88L48 89L43.5 94L44 100L38.5 97.5L32.5 100L33.5 93.5L29 89L35.5 88Z" fill="white"/>
<path d="M35.5 88L38.5 82L41.5 88L48 89L43.5 94L44 100L38.5 97.5L32.5 100L33.5 93.5L29 89L35.5 88Z" fill="white"/>
<path d="M35.5 88L38.5 82L41.5 88L48 89L43.5 94L44 100L38.5 97.5L32.5 100L33.5 93.5L29 89L35.5 88Z" fill="white"/>
<path d="M35.5 88L38.5 82L41.5 88L48 89L43.5 94L44 100L38.5 97.5L32.5 100L33.5 93.5L29 89L35.5 88Z" fill="white"/>
<path d="M35.5 88L38.5 82L41.5 88L48 89L43.5 94L44 100L38.5 97.5L32.5 100L33.5 93.5L29 89L35.5 88Z" fill="white"/>
<path d="M35.5 51L38.5 45L41.5 51L48 52L43.5 57L44 63L38.5 60.5L32.5 63L33.5 56.5L29 52L35.5 51Z" fill="white"/>
<path d="M35.5 51L38.5 45L41.5 51L48 52L43.5 57L44 63L38.5 60.5L32.5 63L33.5 56.5L29 52L35.5 51Z" fill="white"/>
<path d="M35.5 51L38.5 45L41.5 51L48 52L43.5 57L44 63L38.5 60.5L32.5 63L33.5 56.5L29 52L35.5 51Z" fill="white"/>
<path d="M35.5 51L38.5 45L41.5 51L48 52L43.5 57L44 63L38.5 60.5L32.5 63L33.5 56.5L29 52L35.5 51Z" fill="white"/>
<path d="M35.5 51L38.5 45L41.5 51L48 52L43.5 57L44 63L38.5 60.5L32.5 63L33.5 56.5L29 52L35.5 51Z" fill="white"/>
<path d="M35.5 51L38.5 45L41.5 51L48 52L43.5 57L44 63L38.5 60.5L32.5 63L33.5 56.5L29 52L35.5 51Z" fill="white"/>
<path d="M35.5 51L38.5 45L41.5 51L48 52L43.5 57L44 63L38.5 60.5L32.5 63L33.5 56.5L29 52L35.5 51Z" fill="white"/>
<path d="M35.5 51L38.5 45L41.5 51L48 52L43.5 57L44 63L38.5 60.5L32.5 63L33.5 56.5L29 52L35.5 51Z" fill="white"/>
<path d="M15.5 69L18.5 63L21.5 69L28 70L23.5 75L24 81L18.5 78.5L12.5 81L13.5 74.5L9 70L15.5 69Z" fill="white"/>
<path d="M15.5 69L18.5 63L21.5 69L28 70L23.5 75L24 81L18.5 78.5L12.5 81L13.5 74.5L9 70L15.5 69Z" fill="white"/>
<path d="M15.5 69L18.5 63L21.5 69L28 70L23.5 75L24 81L18.5 78.5L12.5 81L13.5 74.5L9 70L15.5 69Z" fill="white"/>
<path d="M15.5 69L18.5 63L21.5 69L28 70L23.5 75L24 81L18.5 78.5L12.5 81L13.5 74.5L9 70L15.5 69Z" fill="white"/>
<path d="M15.5 69L18.5 63L21.5 69L28 70L23.5 75L24 81L18.5 78.5L12.5 81L13.5 74.5L9 70L15.5 69Z" fill="white"/>
<path d="M15.5 69L18.5 63L21.5 69L28 70L23.5 75L24 81L18.5 78.5L12.5 81L13.5 74.5L9 70L15.5 69Z" fill="white"/>
<path d="M15.5 69L18.5 63L21.5 69L28 70L23.5 75L24 81L18.5 78.5L12.5 81L13.5 74.5L9 70L15.5 69Z" fill="white"/>
<path d="M15.5 69L18.5 63L21.5 69L28 70L23.5 75L24 81L18.5 78.5L12.5 81L13.5 74.5L9 70L15.5 69Z" fill="white"/>
<path d="M15.5 108L18.5 102L21.5 108L28 109L23.5 114L24 120L18.5 117.5L12.5 120L13.5 113.5L9 109L15.5 108Z" fill="white"/>
<path d="M15.5 108L18.5 102L21.5 108L28 109L23.5 114L24 120L18.5 117.5L12.5 120L13.5 113.5L9 109L15.5 108Z" fill="white"/>
<path d="M15.5 108L18.5 102L21.5 108L28 109L23.5 114L24 120L18.5 117.5L12.5 120L13.5 113.5L9 109L15.5 108Z" fill="white"/>
<path d="M15.5 108L18.5 102L21.5 108L28 109L23.5 114L24 120L18.5 117.5L12.5 120L13.5 113.5L9 109L15.5 108Z" fill="white"/>
<path d="M15.5 108L18.5 102L21.5 108L28 109L23.5 114L24 120L18.5 117.5L12.5 120L13.5 113.5L9 109L15.5 108Z" fill="white"/>
<path d="M15.5 108L18.5 102L21.5 108L28 109L23.5 114L24 120L18.5 117.5L12.5 120L13.5 113.5L9 109L15.5 108Z" fill="white"/>
<path d="M15.5 108L18.5 102L21.5 108L28 109L23.5 114L24 120L18.5 117.5L12.5 120L13.5 113.5L9 109L15.5 108Z" fill="white"/>
<path d="M15.5 108L18.5 102L21.5 108L28 109L23.5 114L24 120L18.5 117.5L12.5 120L13.5 113.5L9 109L15.5 108Z" fill="white"/>
<path d="M94.5 31L97.5 25L100.5 31L107 32L102.5 37L103 43L97.5 40.5L91.5 43L92.5 36.5L88 32L94.5 31Z" fill="white"/>
<path d="M94.5 31L97.5 25L100.5 31L107 32L102.5 37L103 43L97.5 40.5L91.5 43L92.5 36.5L88 32L94.5 31Z" fill="white"/>
<path d="M94.5 31L97.5 25L100.5 31L107 32L102.5 37L103 43L97.5 40.5L91.5 43L92.5 36.5L88 32L94.5 31Z" fill="white"/>
<path d="M94.5 31L97.5 25L100.5 31L107 32L102.5 37L103 43L97.5 40.5L91.5 43L92.5 36.5L88 32L94.5 31Z" fill="white"/>
<path d="M94.5 31L97.5 25L100.5 31L107 32L102.5 37L103 43L97.5 40.5L91.5 43L92.5 36.5L88 32L94.5 31Z" fill="white"/>
<path d="M94.5 31L97.5 25L100.5 31L107 32L102.5 37L103 43L97.5 40.5L91.5 43L92.5 36.5L88 32L94.5 31Z" fill="white"/>
<path d="M94.5 31L97.5 25L100.5 31L107 32L102.5 37L103 43L97.5 40.5L91.5 43L92.5 36.5L88 32L94.5 31Z" fill="white"/>
<path d="M94.5 31L97.5 25L100.5 31L107 32L102.5 37L103 43L97.5 40.5L91.5 43L92.5 36.5L88 32L94.5 31Z" fill="white"/>
<path d="M54.5 31L57.5 25L60.5 31L67 32L62.5 37L63 43L57.5 40.5L51.5 43L52.5 36.5L48 32L54.5 31Z" fill="white"/>
<path d="M54.5 31L57.5 25L60.5 31L67 32L62.5 37L63 43L57.5 40.5L51.5 43L52.5 36.5L48 32L54.5 31Z" fill="white"/>
<path d="M54.5 31L57.5 25L60.5 31L67 32L62.5 37L63 43L57.5 40.5L51.5 43L52.5 36.5L48 32L54.5 31Z" fill="white"/>
<path d="M54.5 31L57.5 25L60.5 31L67 32L62.5 37L63 43L57.5 40.5L51.5 43L52.5 36.5L48 32L54.5 31Z" fill="white"/>
<path d="M54.5 31L57.5 25L60.5 31L67 32L62.5 37L63 43L57.5 40.5L51.5 43L52.5 36.5L48 32L54.5 31Z" fill="white"/>
<path d="M54.5 31L57.5 25L60.5 31L67 32L62.5 37L63 43L57.5 40.5L51.5 43L52.5 36.5L48 32L54.5 31Z" fill="white"/>
<path d="M54.5 31L57.5 25L60.5 31L67 32L62.5 37L63 43L57.5 40.5L51.5 43L52.5 36.5L48 32L54.5 31Z" fill="white"/>
<path d="M54.5 31L57.5 25L60.5 31L67 32L62.5 37L63 43L57.5 40.5L51.5 43L52.5 36.5L48 32L54.5 31Z" fill="white"/>
<path d="M94.5 108L97.5 102L100.5 108L107 109L102.5 114L103 120L97.5 117.5L91.5 120L92.5 113.5L88 109L94.5 108Z" fill="white"/>
<path d="M94.5 108L97.5 102L100.5 108L107 109L102.5 114L103 120L97.5 117.5L91.5 120L92.5 113.5L88 109L94.5 108Z" fill="white"/>
<path d="M94.5 108L97.5 102L100.5 108L107 109L102.5 114L103 120L97.5 117.5L91.5 120L92.5 113.5L88 109L94.5 108Z" fill="white"/>
<path d="M94.5 108L97.5 102L100.5 108L107 109L102.5 114L103 120L97.5 117.5L91.5 120L92.5 113.5L88 109L94.5 108Z" fill="white"/>
<path d="M94.5 108L97.5 102L100.5 108L107 109L102.5 114L103 120L97.5 117.5L91.5 120L92.5 113.5L88 109L94.5 108Z" fill="white"/>
<path d="M94.5 108L97.5 102L100.5 108L107 109L102.5 114L103 120L97.5 117.5L91.5 120L92.5 113.5L88 109L94.5 108Z" fill="white"/>
<path d="M94.5 108L97.5 102L100.5 108L107 109L102.5 114L103 120L97.5 117.5L91.5 120L92.5 113.5L88 109L94.5 108Z" fill="white"/>
<path d="M94.5 108L97.5 102L100.5 108L107 109L102.5 114L103 120L97.5 117.5L91.5 120L92.5 113.5L88 109L94.5 108Z" fill="white"/>
</svg>
